<?xml version="1.0" encoding="UTF-8"?>
<svg width="13px" height="9px" viewBox="0 0 13 9" version="1.1" xmlns="http://www.w3.org/2000/svg" xmlns:xlink="http://www.w3.org/1999/xlink">
    <!-- Generator: Sketch 50.2 (55047) - http://www.bohemiancoding.com/sketch -->
    <title>Fill 1</title>
    <desc>Created with Sketch.</desc>
    <defs></defs>
    <g id="Stand-Oktober-2018" stroke="none" stroke-width="1" fill="none" fill-rule="evenodd">
        <g id="Thema" transform="translate(-433.000000, -150.000000)" fill="#9B9B9B">
            <path d="M441.322559,150.261805 C441.104761,150.051394 440.751366,150.051394 440.532968,150.261805 C440.315171,150.473379 440.315171,150.815153 440.532968,151.026727 L443.151936,153.563291 L433.62689,153.458923 C433.318494,153.458923 433.068897,153.700722 433.068897,153.999483 C433.068897,154.297663 433.318494,154.540044 433.62689,154.540044 L443.151936,154.644412 L440.532968,157.180976 C440.315171,157.391969 440.315171,157.734323 440.532968,157.945316 C440.642167,158.051103 440.784965,158.103997 440.927764,158.103997 C441.070562,158.103997 441.21336,158.051103 441.322559,157.945316 L444.893114,154.485731 C445.110911,154.274738 445.110911,153.932383 444.893114,153.721391 L441.322559,150.261805 Z" id="Fill-1" transform="translate(439.062679, 154.103997) scale(-1, 1) rotate(-1.000000) translate(-439.062679, -154.103997) "></path>
        </g>
    </g>
</svg>