<?xml version="1.0" encoding="utf-8"?>
<!-- Generator: Adobe Illustrator 21.0.0, SVG Export Plug-In . SVG Version: 6.00 Build 0)  -->
<svg version="1.1" xmlns="http://www.w3.org/2000/svg" xmlns:xlink="http://www.w3.org/1999/xlink" x="0px" y="0px"
	 viewBox="0 0 383.5 204.4" style="enable-background:new 0 0 383.5 204.4;" xml:space="preserve">
<style type="text/css">
	.st0{fill-rule:evenodd;clip-rule:evenodd;fill:#961734;}
	.st1{fill:#961734;}
</style>
<g id="Hintergrund">
</g>
<g id="Hilfslinien_anzeigen">
</g>
<g id="Vordergrund">
	<g>
		<path class="st0" d="M131.8,88.5c0,7.6,3.4,15.7,12.9,15.7c8.6,0,12.1-8.1,12.1-15.7c0-7.6-3.5-15.7-12.1-15.7
			C135.1,72.8,131.8,80.9,131.8,88.5z"/>
		<path class="st0" d="M118.6,88.5c0,7.6-3.5,15.7-12.1,15.7c-9.6,0-12.9-8.1-12.9-15.7c0-8.4,3-15.7,12.9-15.7
			C115.1,72.8,118.6,80.9,118.6,88.5z M89,114.6l4.5,0l0-14.6h0.1c1.9,5.3,7.3,8.1,12.8,8.1c11.2,0,16.6-9.1,16.6-19.5
			c0-10.4-5.4-19.5-16.6-19.5c-5.9,0-11.1,3.1-13.1,8.1h-0.1v-7H89V114.6z M79.8,88.5c0,7.6-3.5,15.7-12.1,15.7
			c-9.6,0-12.9-8.1-12.9-15.7c0-7.6,3.4-15.7,12.9-15.7C76.3,72.8,79.8,80.9,79.8,88.5z M50.7,106.9h4.1v-7H55
			c2.1,5,7.2,8.1,13.1,8.1c11.2,0,16.6-9.1,16.6-19.5c0-10.4-5.3-19.5-16.6-19.5c-5.5,0-10.8,2.8-12.8,8.1h-0.1V63.2h-4.5V106.9z
			 M144.7,108c-5.9,0-11.1-3.1-13.1-8.1h-0.1v7h-4.1V63.2h4.5v13.9h0.1c1.9-5.3,7.3-8.1,12.8-8.1c3.2,0,6,0.8,8.2,2.1
			C141.5,47.3,117.1,30.9,89,30.9c-39.1,0-70.9,31.7-70.9,70.9s31.7,70.9,70.9,70.9c39.1,0,70.9-31.7,70.9-70.9
			c0-1.4-0.1-2.8-0.1-4.2C157.4,103.6,152.4,108,144.7,108z"/>
		<g>
			<path class="st0" d="M178.1,148.2c0,2.2-0.9,4.4-3.4,4.4c-2.6,0-3.6-2.1-3.6-4.3c0-2.2,1-4.3,3.5-4.3
				C177,144,178.1,146,178.1,148.2z M169.3,158.4h1.9v-5.9h0c0.8,1.4,2.5,1.8,3.7,1.8c3.5,0,5.2-2.7,5.2-6c0-3.2-1.8-6-5.3-6
				c-1.6,0-3,0.6-3.7,1.8h0v-1.6h-1.9V158.4z"/>
			<path class="st0" d="M181.7,148.3c0,3.3,1.9,6,5.6,6c3.6,0,5.6-2.6,5.6-6c0-3.4-1.9-6-5.6-6C183.7,142.3,181.7,144.9,181.7,148.3
				z M183.7,148.3c0-2.8,1.6-4.4,3.6-4.4c2,0,3.6,1.5,3.6,4.4c0,2.8-1.6,4.3-3.6,4.3C185.3,152.6,183.7,151.1,183.7,148.3z"/>
			<rect x="195.4" y="138.2" class="st0" width="1.9" height="15.8"/>
			<path class="st0" d="M200.6,154h1.9v-11.5h-1.9V154z M202.4,138.2h-1.9v2.3h1.9V138.2z"/>
			<path class="st0" d="M208.2,139.1h-1.9v3.4h-2v1.7h2v7.3c0,2.1,0.8,2.5,2.7,2.5h1.4v-1.7h-0.9c-1.2,0-1.4-0.2-1.4-1v-7.1h2.3
				v-1.7h-2.3V139.1z"/>
			<path class="st0" d="M212.9,154h1.9v-11.5h-1.9V154z M214.8,138.2h-1.9v2.3h1.9V138.2z"/>
			<path class="st0" d="M217.2,150.4c0.1,2.8,2.3,3.9,4.9,3.9c2.3,0,4.9-0.9,4.9-3.6c0-2.2-1.9-2.8-3.7-3.3c-1.8-0.4-3.7-0.7-3.7-2
				c0-1.2,1.3-1.5,2.4-1.5c1.2,0,2.5,0.5,2.7,1.9h1.9c-0.2-2.8-2.2-3.6-4.7-3.6c-2,0-4.3,1-4.3,3.3c0,2.2,1.9,2.8,3.7,3.2
				c1.9,0.4,3.8,0.7,3.8,2.1c0,1.4-1.6,1.7-2.8,1.7c-1.6,0-3-0.5-3.1-2.2H217.2z"/>
			<path class="st0" d="M239,146.2c-0.3-2.7-2.4-3.9-5-3.9c-3.6,0-5.4,2.7-5.4,6.2c0,3.4,1.9,5.9,5.4,5.9c2.9,0,4.6-1.7,5.1-4.5
				h-1.9c-0.2,1.7-1.3,2.8-3.2,2.8c-2.4,0-3.4-2.1-3.4-4.2c0-2.3,0.9-4.5,3.6-4.5c1.6,0,2.5,0.8,2.8,2.3H239z"/>
			<path class="st0" d="M241.4,154h1.9v-6.5c0-2.1,1.1-3.6,3.4-3.6c1.4,0,2.3,0.9,2.3,2.3v7.8h1.9v-7.5c0-2.5-0.9-4.2-4-4.2
				c-1.4,0-3,0.6-3.6,2h0v-6.1h-1.9V154z"/>
			<path class="st0" d="M261.8,150.4c-0.3,1.5-1.4,2.2-3,2.2c-2.5,0-3.7-1.8-3.6-3.8h8.6c0.1-2.8-1.1-6.6-5.2-6.6
				c-3.1,0-5.4,2.5-5.4,6c0.1,3.5,1.8,6,5.5,6c2.6,0,4.4-1.4,4.9-3.9H261.8z M255.3,147.2c0.1-1.8,1.3-3.2,3.3-3.2
				c1.9,0,3.2,1.4,3.3,3.2H255.3z"/>
			<path class="st0" d="M275.1,146.8h4.8c1.8,0,3.4,0.6,3.4,2.6c0,1.7-1.2,2.8-3,2.8h-5.3V146.8z M273,154h7.7
				c3.2,0,4.8-2.2,4.8-4.6c0-2-1.1-3.4-3-3.8v0c1.5-0.6,2.4-1.9,2.4-3.5c0-1.5-0.8-2.7-1.9-3.3c-1-0.6-2.8-0.6-4.2-0.6H273V154z
				 M275.1,140h4.2c1.8,0,3.4,0.3,3.4,2.5c0,1.7-1,2.5-3.4,2.5h-4.2V140z"/>
			<path class="st0" d="M288.2,154h1.9v-11.5h-1.9V154z M290.1,138.2h-1.9v2.3h1.9V138.2z"/>
			<rect x="293.3" y="138.2" class="st0" width="1.9" height="15.8"/>
			<path class="st0" d="M308.4,138.2h-1.9v5.9h0c-0.8-1.4-2.5-1.8-3.7-1.8c-3.5,0-5.2,2.7-5.2,6c0,3.2,1.7,6,5.3,6
				c1.6,0,3-0.6,3.7-1.8h0v1.6h1.9V138.2z M299.5,148.4c0-2.2,0.9-4.4,3.4-4.4c2.6,0,3.6,2.1,3.6,4.4c0,2.2-1,4.3-3.5,4.3
				C300.6,152.6,299.5,150.5,299.5,148.4z"/>
			<path class="st0" d="M321,142.6h-1.9v6.5c0,2.1-1.1,3.6-3.4,3.6c-1.4,0-2.3-0.9-2.3-2.3v-7.8h-1.9v7.5c0,2.5,0.9,4.2,3.9,4.2
				c1.6,0,2.9-0.7,3.7-2.1h0v1.8h1.8V142.6z"/>
			<path class="st0" d="M324,154h1.9v-6.5c0-2.1,1.1-3.6,3.4-3.6c1.4,0,2.3,0.9,2.3,2.3v7.8h1.9v-7.5c0-2.5-0.9-4.2-3.9-4.2
				c-1.6,0-2.9,0.7-3.7,2.1h0v-1.8H324V154z"/>
			<path class="st0" d="M341.2,152.5c-2.5,0-3.2-2.3-3.2-4.4c0-2.2,1-4.2,3.4-4.2c2.4,0,3.3,2.1,3.3,4.1
				C344.6,150.2,343.7,152.5,341.2,152.5z M346.5,142.6h-1.8v1.6h0h0c-0.7-1.3-2-1.9-3.4-1.9c-4,0-5.3,3.4-5.3,6.1
				c0,3.1,1.7,5.8,5.1,5.8c1.4,0,3-0.7,3.6-2.1h0v0.8c0,2.6-1,4.3-3.4,4.3c-1.2,0-2.9-0.5-3-1.9h-1.9c0.1,2.5,2.6,3.4,4.8,3.4
				c3.6,0,5.3-1.9,5.3-5.6V142.6z"/>
		</g>
		<g>
			<path class="st0" d="M171.4,124.6h4.8c1.8,0,3.4,0.6,3.4,2.6c0,1.7-1.2,2.8-3,2.8h-5.3V124.6z M169.3,131.8h7.7
				c3.2,0,4.8-2.2,4.8-4.6c0-1.9-1.1-3.4-3-3.8v0c1.5-0.6,2.3-1.9,2.3-3.5c0-1.6-0.8-2.7-1.9-3.3c-1-0.6-2.8-0.6-4.2-0.6h-5.8V131.8
				z M171.4,117.8h4.2c1.8,0,3.4,0.3,3.4,2.5c0,1.7-1,2.5-3.4,2.5h-4.2V117.8z"/>
			<path class="st0" d="M193.6,120.4h-1.9v6.5c0,2.1-1.1,3.6-3.4,3.6c-1.4,0-2.3-0.9-2.3-2.3v-7.8h-1.9v7.5c0,2.5,0.9,4.2,3.9,4.2
				c1.6,0,2.9-0.7,3.7-2.1h0v1.8h1.8V120.4z"/>
			<path class="st0" d="M196.7,131.8h1.9v-6.5c0-2.1,1.1-3.6,3.4-3.6c1.4,0,2.3,0.9,2.3,2.3v7.8h1.9v-7.5c0-2.5-0.9-4.2-4-4.2
				c-1.6,0-2.9,0.7-3.7,2.1h0v-1.8h-1.8V131.8z"/>
			<path class="st0" d="M219.5,116h-1.9v5.9h0c-0.8-1.4-2.5-1.8-3.7-1.8c-3.5,0-5.2,2.7-5.2,6c0,3.2,1.8,6,5.3,6
				c1.6,0,3-0.6,3.7-1.8h0v1.6h1.9V116z M210.6,126.2c0-2.2,0.9-4.4,3.4-4.4c2.6,0,3.6,2.1,3.6,4.3c0,2.2-1,4.3-3.5,4.3
				C211.7,130.4,210.6,128.4,210.6,126.2z"/>
			<path class="st0" d="M230.5,128.2c-0.3,1.5-1.4,2.2-3,2.2c-2.5,0-3.6-1.8-3.6-3.8h8.6c0.1-2.8-1.1-6.6-5.2-6.6
				c-3.1,0-5.4,2.5-5.4,6c0.1,3.5,1.8,6,5.5,6c2.6,0,4.4-1.4,4.9-3.9H230.5z M224,125c0.1-1.8,1.3-3.2,3.3-3.2
				c1.9,0,3.2,1.4,3.3,3.2H224z"/>
			<path class="st0" d="M234,128.2c0.1,2.8,2.3,3.9,4.9,3.9c2.3,0,4.9-0.9,4.9-3.6c0-2.2-1.9-2.8-3.7-3.3c-1.7-0.4-3.7-0.7-3.7-2
				c0-1.2,1.3-1.5,2.4-1.5c1.2,0,2.5,0.5,2.7,1.9h1.9c-0.2-2.8-2.2-3.6-4.7-3.6c-2,0-4.3,1-4.3,3.3c0,2.2,1.9,2.8,3.7,3.2
				c1.9,0.4,3.7,0.7,3.7,2.1c0,1.4-1.6,1.7-2.8,1.7c-1.6,0-3-0.5-3.1-2.2H234z"/>
			<polygon class="st0" points="245.1,131.8 254.8,131.8 254.8,130.2 247.5,130.2 254.5,121.7 254.5,120.4 245.6,120.4 245.6,122 
				252.1,122 245.1,130.4 			"/>
			<path class="st0" d="M264.9,128.2c-0.3,1.5-1.4,2.2-3,2.2c-2.5,0-3.6-1.8-3.6-3.8h8.6c0.1-2.8-1.1-6.6-5.2-6.6
				c-3.1,0-5.4,2.5-5.4,6c0.1,3.5,1.8,6,5.5,6c2.6,0,4.4-1.4,4.9-3.9H264.9z M258.3,125c0.1-1.8,1.3-3.2,3.3-3.2
				c1.9,0,3.2,1.4,3.3,3.2H258.3z"/>
			<path class="st0" d="M269.1,131.8h1.9v-6.5c0-2.1,1.1-3.6,3.4-3.6c1.4,0,2.3,0.9,2.3,2.3v7.8h1.9v-7.5c0-2.5-0.9-4.2-4-4.2
				c-1.6,0-2.9,0.7-3.7,2.1h0v-1.8h-1.8V131.8z"/>
			<path class="st0" d="M284.2,116.9h-1.9v3.4h-2v1.7h2v7.3c0,2.1,0.8,2.5,2.7,2.5h1.4v-1.7h-0.9c-1.2,0-1.4-0.1-1.4-1V122h2.3v-1.7
				h-2.3V116.9z"/>
			<path class="st0" d="M289,131.8h1.9v-5.1c0-2.9,1.1-4.6,4.2-4.6v-2c-2-0.1-3.3,0.8-4.2,2.7h0v-2.4H289V131.8z"/>
			<path class="st0" d="M303.5,127.8c0,1-1,2.6-3.5,2.6c-1.2,0-2.2-0.4-2.2-1.7c0-1.4,1.1-1.8,2.3-2.1c1.3-0.2,2.7-0.2,3.4-0.8
				V127.8z M306.6,130.3c-0.2,0.1-0.4,0.1-0.6,0.1c-0.6,0-0.6-0.4-0.6-1.3v-5.9c0-2.7-2.2-3.1-4.3-3.1c-2.6,0-4.8,1-4.9,3.8h1.9
				c0.1-1.7,1.3-2.2,2.9-2.2c1.2,0,2.5,0.3,2.5,1.9c0,1.4-1.8,1.3-3.9,1.7c-2,0.4-3.9,0.9-3.9,3.5c0,2.3,1.7,3.2,3.8,3.2
				c1.6,0,3-0.6,4-1.8c0,1.2,0.6,1.8,1.6,1.8c0.6,0,1-0.1,1.4-0.3V130.3z"/>
			<rect x="308.7" y="116" class="st0" width="1.9" height="15.8"/>
			<path class="st0" d="M321.6,128.2c-0.3,1.5-1.4,2.2-3,2.2c-2.5,0-3.6-1.8-3.6-3.8h8.6c0.1-2.8-1.1-6.6-5.2-6.6
				c-3.1,0-5.4,2.5-5.4,6c0.1,3.5,1.8,6,5.5,6c2.6,0,4.4-1.4,4.9-3.9H321.6z M315.1,125c0.1-1.8,1.3-3.2,3.3-3.2
				c1.9,0,3.2,1.4,3.3,3.2H315.1z"/>
			<path class="st0" d="M333.2,131.8h1.9V122h2.2v-1.7h-2.2v-1.6c0-1,0.5-1.3,1.4-1.3c0.3,0,0.7,0,1.1,0.2V116
				c-0.4-0.1-0.9-0.2-1.2-0.2c-2.1,0-3.2,1-3.2,2.8v1.7h-1.9v1.7h1.9V131.8z"/>
			<path class="st0" d="M345.1,118.7h2v-2.3h-2V118.7z M340.9,118.7h2v-2.3h-2V118.7z M348.7,120.4h-1.9v6.5c0,2.1-1.1,3.6-3.4,3.6
				c-1.4,0-2.3-0.9-2.3-2.3v-7.8h-1.9v7.5c0,2.5,0.9,4.2,4,4.2c1.6,0,2.9-0.7,3.7-2.1h0v1.8h1.8V120.4z"/>
			<path class="st0" d="M351.7,131.8h1.9v-5.1c0-2.9,1.1-4.6,4.1-4.6v-2c-2-0.1-3.3,0.8-4.2,2.7h0v-2.4h-1.8V131.8z"/>
		</g>
		<rect x="169.2" y="72.8" class="st1" width="7.6" height="7.6"/>
		<path class="st1" d="M173,76.6"/>
		<rect x="169.2" y="99.3" class="st1" width="7.6" height="7.6"/>
		<path class="st1" d="M173,103.1"/>
	</g>
</g>
</svg>
