<svg id="Layer_1" data-name="Layer 1" xmlns="http://www.w3.org/2000/svg" viewBox="0 0 301.35 133.99"><defs><style>.cls-1{fill:#fff;}</style></defs><title>Artboard 52</title><path class="cls-1" d="M222.7,82.22,129.16,82l-1-4.05,43.61-23.49,1-.26,92.92-.26,1.06,4-43,24Zm-85-4.53,84.48.22,35.22-19.66-84,.24Z"/><path class="cls-1" d="M266.66,58.21H1.35V1.7H266.66ZM5.66,53.9H262.35V6H5.66Z"/><path class="cls-1" d="M32.67,18.53a12.22,12.22,0,1,1,0,24.43H25.59V18.53ZM32,38c4.12,0,6.93-3.14,7-7.23s-2.81-7.26-7-7.26h-.86V38Z"/><path class="cls-1" d="M62.91,23.41H54.5v4.86h8.05v4.89H54.5v4.92h8.41V43h-14V18.53h14Z"/><path class="cls-1" d="M86.63,28.48h-.15l-5,14.33H78.16l-5-14.33H73L71.86,43H66.29l2.19-24.43H74.4l5.42,14.1,5.42-14.1h5.92L93.35,43H87.79Z"/><path class="cls-1" d="M108.31,18.08A12.38,12.38,0,0,1,120.6,30.73c0,7.14-5.27,12.67-12.29,12.67C101.09,43.4,96,37.87,96,30.73A12.44,12.44,0,0,1,108.31,18.08Zm0,19.93c4.44,0,6.28-3.64,6.28-7.28s-2-7.29-6.28-7.29S102,27.09,102,30.73,103.75,38,108.31,38Z"/><path class="cls-1" d="M139.12,43l-9-10.36V43h-5.57V18.53h5.57v10l8.38-10h6.75l-9.83,11.58L146.79,43Z"/><path class="cls-1" d="M158.07,18.53c4.53,0,8,2.46,8,7.26a7,7,0,0,1-5,7.08L169.45,43h-7.08l-7.46-9.65V43h-5.57V18.53Zm-2.52,10.84c2.1,0,4.62-.15,4.62-3.2s-2.52-3.2-4.62-3.2h-.65v6.4Z"/><path class="cls-1" d="M194.3,43h-6l-1.81-4.89h-9.3L175.4,43h-6l9.86-24.43h5.15ZM181.89,26.08h-.06l-2.72,7.11h5.51Z"/><path class="cls-1" d="M193,18.53H210.2v4.89h-5.8V43h-5.57V23.41H193Z"/><path class="cls-1" d="M220,43h-5.57V18.53H220Z"/><path class="cls-1" d="M239,23.41h-8.41v4.86h8.05v4.89h-8.05v4.92H239V43H225V18.53h14Z"/><path class="cls-1" d="M301.35,134H127.47V77.85H301.35Zm-169.57-4.31H297V82.16H131.78Z"/><path class="cls-1" d="M154.82,113.74h8.41v4.89h-14V94.2h5.57Z"/><path class="cls-1" d="M190.18,118.63h-6l-1.81-4.89h-9.3l-1.81,4.89h-6l9.86-24.43h5.15Zm-12.41-16.88h-.06L175,108.86h5.51Z"/><path class="cls-1" d="M200.19,94.2c4.21,0,7.52,1.57,7.52,6.22a5.58,5.58,0,0,1-3.05,5.24c3.05.53,5.21,2.22,5.21,6.16s-2.93,6.81-8,6.81h-9.27V94.2Zm-1.57,9.57c2.4,0,3.7-.74,3.7-2.78,0-1.75-1.27-2.49-3.7-2.49h-.44v5.27Zm1.3,10.57c2.64,0,4.09-.8,4.09-2.72,0-2.25-1.45-3.05-4.09-3.05h-1.75v5.77Z"/><path class="cls-1" d="M225,93.76a12.38,12.38,0,0,1,12.29,12.64c0,7.14-5.27,12.67-12.29,12.67-7.23,0-12.32-5.54-12.32-12.67A12.44,12.44,0,0,1,225,93.76Zm0,19.93c4.44,0,6.28-3.64,6.28-7.29s-2-7.28-6.28-7.28-6.31,3.64-6.31,7.28S220.48,113.69,225,113.69Z"/><path class="cls-1" d="M250,94.2c4.53,0,8,2.46,8,7.26a7,7,0,0,1-5,7.08l8.41,10.1h-7.08L246.84,109v9.65h-5.57V94.2ZM247.49,105c2.1,0,4.62-.15,4.62-3.2s-2.52-3.2-4.62-3.2h-.65V105Z"/><path class="cls-1" d="M277.94,99.09h-8.41v4.86h8.05v4.89h-8.05v4.92h8.41v4.89H264V94.2h14Z"/></svg>