<?xml version="1.0" encoding="utf-8"?>
<!-- Generator: Adobe Illustrator 21.0.0, SVG Export Plug-In . SVG Version: 6.00 Build 0)  -->
<svg version="1.1" id="Layer_1" xmlns="http://www.w3.org/2000/svg" xmlns:xlink="http://www.w3.org/1999/xlink" x="0px" y="0px"
	 viewBox="0 0 418 202" style="enable-background:new 0 0 418 202;" xml:space="preserve">
<style type="text/css">
	.st0{fill:none;stroke:#00FFF8;stroke-width:5;stroke-linejoin:bevel;stroke-miterlimit:10;}
	.st1{fill:url(#SVGID_1_);}
	.st2{fill:url(#SVGID_2_);}
</style>
<path class="st0" d="M227.3,84.5"/>
<linearGradient id="SVGID_1_" gradientUnits="userSpaceOnUse" x1="38.2879" y1="-29.8364" x2="408.8008" y2="184.0793">
	<stop  offset="2.576122e-02" style="stop-color:#2DFFC4"/>
	<stop  offset="0.5373" style="stop-color:#2DBCFF"/>
	<stop  offset="1" style="stop-color:#003BFF"/>
</linearGradient>
<path class="st1" d="M314.4,115.3l44.9-27.5l-0.3-0.5V13.1H13.5v74.5H217l-44.9,27.5l0.3,0.5v74.1h233v-74.5H314.4z M17.5,17.1H355
	v66.5H17.5V17.1z M351.9,87.6l-45.1,27.7H179.6l45.1-27.7H351.9z M401.5,185.8h-225v-66.5h225V185.8z"/>
<linearGradient id="SVGID_2_" gradientUnits="userSpaceOnUse" x1="38.9736" y1="101.4827" x2="383.1538" y2="101.4827">
	<stop  offset="2.576122e-02" style="stop-color:#2DFFC4"/>
	<stop  offset="0.5373" style="stop-color:#2DBCFF"/>
	<stop  offset="1" style="stop-color:#003BFF"/>
</linearGradient>
<path class="st2" d="M48.6,32.8H39v34.3h9.4c12.6,0,16.6-9.3,16.6-17.1C64.9,41.5,60.5,32.8,48.6,32.8z M49.2,62.3h-5.1V37.6h5.7
	c7,0,9.9,6.2,9.9,12.3C59.6,55.8,57.1,62.3,49.2,62.3z M77.6,62.3h17.2v4.8H72.5V32.8h21.3v4.8H77.6V47h10.4v4.8H77.6V62.3z
	 M127.4,32.8h5.1v34.3h-5.1V48.4c0-1.7,0.1-4.5,0.2-5.5c-0.5,1.6-1.4,4.1-2.1,5.7l-8.3,19.2L109,48.4c-0.7-1.6-1.6-3.9-2.2-5.5
	c0.1,1.1,0.2,3.8,0.2,5.5v18.8H102V32.8h5.1l9.2,21.4c0.3,0.8,0.7,1.9,0.9,2.7c0.2-0.8,0.6-1.9,1-2.7L127.4,32.8z M155.1,32.2
	c-11,0-14.9,9.3-14.9,17.7c0,8.5,3.9,17.7,14.9,17.7c11,0,14.9-9.3,14.9-17.7C170,41.5,166.1,32.2,155.1,32.2z M155.1,62.8
	c-7.2,0-9.7-6.9-9.7-12.8c0-5.6,2.5-12.8,9.7-12.8s9.7,6.9,9.7,12.8C164.8,55.6,162.3,62.8,155.1,62.8z M192.2,44.9l12.2,22.2h-6
	l-9.7-17.9l-6.1,7.3v10.6h-5.1V32.8h5.1v16.6L196,32.8h5.9L192.2,44.9z M236.3,43c0-5.1-2.6-10.1-11.1-10.1h-14.5v34.3h5.1v-14h7.4
	l6.8,14h5.8l-7.1-14.5C234.1,51.3,236.3,46.9,236.3,43z M225.4,48.2h-9.5V37.7h9.5c4.5,0,5.7,2.8,5.7,5.2
	C231,45.6,229.6,48.2,225.4,48.2z M252.8,32.8l-12.4,34.3h5.3l2.8-7.9h13.9l2.7,7.9h5.3L258,32.8H252.8z M250,54.7l4.2-11.7
	c0.4-1.1,0.9-2.7,1.2-3.9c0.2,1.2,0.8,2.8,1.2,3.9l4.2,11.7H250z M270.2,32.8h24.5v4.9H285v29.4h-5.1V37.7h-9.7V32.8z M301.6,32.8
	h5.1v34.3h-5.1V32.8z M338.1,62.3v4.8h-22.3V32.8H337v4.8h-16.2V47h10.4v4.8h-10.4v10.5H338.1z M197.7,135.8h5.1v29.4h16.8v4.9
	h-21.9V135.8z M245.8,162.2h-13.9l-2.8,7.9h-5.3l12.4-34.3h5.2l12.3,34.3h-5.3L245.8,162.2z M240,146.1c-0.4-1.1-0.9-2.7-1.2-3.9
	c-0.3,1.2-0.8,2.7-1.2,3.9l-4.2,11.7h10.7L240,146.1z M272.3,135.8c8.2,0,10.8,4.5,10.8,9.2c0,2.8-1.6,5.6-4.7,7.1
	c4.3,1.5,5.9,4.8,5.9,8c0,4.7-2.9,10-11.3,10h-13.7v-34.3H272.3z M277.9,145.2c0-2.2-0.9-4.7-5.5-4.7h-8v9.5h7.1
	C275.7,150,277.9,148,277.9,145.2z M279.1,160.3c0-2.9-1.4-5.6-7.2-5.6h-7.5v10.7h9C277.9,165.4,279.1,162.7,279.1,160.3z
	 M290.2,153c0-8.5,3.9-17.7,14.9-17.7c11,0,14.9,9.3,14.9,17.7c0,8.5-3.9,17.7-14.9,17.7C294.1,170.7,290.2,161.5,290.2,153z
	 M314.8,153c0-6-2.5-12.8-9.7-12.8s-9.7,7.3-9.7,12.8c0,6,2.5,12.8,9.7,12.8S314.8,158.6,314.8,153z M327.7,135.8h14.5
	c8.4,0,11.1,5,11.1,10.1c0,4-2.2,8.3-7.4,9.7l7.1,14.5H347l-6.8-14h-7.4v14h-5.1V135.8z M342.2,151.2c4.3,0,5.7-2.6,5.7-5.2
	c0-2.4-1.2-5.2-5.7-5.2h-9.5v10.5H342.2z M360.8,135.8h21.3v4.8h-16.2v9.4h10.4v4.8h-10.4v10.5h17.2v4.8h-22.3V135.8z"/>
</svg>
