<svg id="Layer_1" data-name="Layer 1" xmlns="http://www.w3.org/2000/svg" viewBox="0 0 300 132.3"><defs><style>.cls-1{fill:#123;}</style></defs><title>Artboard 53</title><path class="cls-1" d="M221.35,80.52l-93.54-.24-1-4.05L170.4,52.73l1-.26,92.92-.26,1.06,4-43,24Zm-85-4.53,84.48.22L256,56.54l-84,.24Z"/><path class="cls-1" d="M265.31,56.51H0V0H265.31ZM4.31,52.2H261V4.31H4.31Z"/><path class="cls-1" d="M31.32,16.83a12.22,12.22,0,1,1,0,24.43H24.24V16.83Zm-.65,19.46c4.12,0,6.93-3.14,7-7.23s-2.81-7.26-7-7.26h-.86V36.29Z"/><path class="cls-1" d="M61.56,21.72H53.15v4.86h8.05v4.89H53.15v4.92h8.41v4.89h-14V16.83h14Z"/><path class="cls-1" d="M85.28,26.78h-.15l-5,14.33H76.81l-5-14.33h-.15L70.51,41.26H64.94l2.19-24.43h5.92l5.42,14.1,5.42-14.1h5.92L92,41.26H86.44Z"/><path class="cls-1" d="M107,16.38A12.38,12.38,0,0,1,119.26,29c0,7.14-5.27,12.67-12.29,12.67-7.23,0-12.32-5.54-12.32-12.67A12.44,12.44,0,0,1,107,16.38Zm0,19.93c4.44,0,6.28-3.64,6.28-7.28s-2-7.29-6.28-7.29-6.31,3.64-6.31,7.29S102.41,36.32,107,36.32Z"/><path class="cls-1" d="M137.77,41.26l-9-10.36V41.26H123.2V16.83h5.57v10l8.38-10h6.75l-9.83,11.58,11.37,12.85Z"/><path class="cls-1" d="M156.73,16.83c4.53,0,8,2.46,8,7.26a7,7,0,0,1-5,7.08l8.41,10.1H161l-7.46-9.65v9.65H148V16.83Zm-2.52,10.84c2.1,0,4.62-.15,4.62-3.2s-2.52-3.2-4.62-3.2h-.65v6.4Z"/><path class="cls-1" d="M192.95,41.26h-6l-1.81-4.89h-9.3l-1.81,4.89h-6l9.86-24.43h5.15ZM180.54,24.38h-.06l-2.72,7.11h5.51Z"/><path class="cls-1" d="M191.68,16.83h17.18v4.89H203V41.26h-5.57V21.72h-5.8Z"/><path class="cls-1" d="M218.66,41.26h-5.57V16.83h5.57Z"/><path class="cls-1" d="M237.67,21.72h-8.41v4.86h8.05v4.89h-8.05v4.92h8.41v4.89h-14V16.83h14Z"/><path class="cls-1" d="M300,132.3H126.12V76.15H300ZM130.43,128H295.69V80.46H130.43Z"/><path class="cls-1" d="M153.47,112h8.41v4.89h-14V92.5h5.57Z"/><path class="cls-1" d="M188.83,116.93h-6L181,112h-9.3l-1.81,4.89h-6l9.86-24.43H179Zm-12.41-16.88h-.06l-2.72,7.11h5.51Z"/><path class="cls-1" d="M198.85,92.5c4.21,0,7.52,1.57,7.52,6.22a5.58,5.58,0,0,1-3.05,5.24c3.05.53,5.21,2.22,5.21,6.16s-2.93,6.81-8,6.81h-9.27V92.5Zm-1.57,9.57c2.4,0,3.7-.74,3.7-2.78,0-1.75-1.27-2.49-3.7-2.49h-.44v5.27Zm1.3,10.57c2.64,0,4.09-.8,4.09-2.72,0-2.25-1.45-3.05-4.09-3.05h-1.75v5.77Z"/><path class="cls-1" d="M223.69,92.06A12.38,12.38,0,0,1,236,104.7c0,7.14-5.27,12.67-12.29,12.67-7.23,0-12.32-5.54-12.32-12.67A12.44,12.44,0,0,1,223.69,92.06Zm0,19.93c4.44,0,6.28-3.64,6.28-7.29s-2-7.28-6.28-7.28-6.31,3.64-6.31,7.28S219.13,112,223.69,112Z"/><path class="cls-1" d="M248.66,92.5c4.53,0,8,2.46,8,7.26a7,7,0,0,1-5,7.08l8.41,10.1H253l-7.46-9.65v9.65h-5.57V92.5Zm-2.52,10.84c2.1,0,4.62-.15,4.62-3.2s-2.52-3.2-4.62-3.2h-.65v6.4Z"/><path class="cls-1" d="M276.59,97.39h-8.41v4.86h8.05v4.89h-8.05V112h8.41v4.89h-14V92.5h14Z"/></svg>