<?xml version="1.0" encoding="utf-8"?>
<!-- Generator: Adobe Illustrator 21.0.0, SVG Export Plug-In . SVG Version: 6.00 Build 0)  -->
<svg version="1.1" id="Layer_1" xmlns="http://www.w3.org/2000/svg" xmlns:xlink="http://www.w3.org/1999/xlink" x="0px" y="0px"
	 viewBox="0 0 427 211" style="enable-background:new 0 0 427 211;" xml:space="preserve">
<style type="text/css">
	.st0{fill:url(#SVGID_1_);}
	.st1{fill:url(#SVGID_2_);}
</style>
<linearGradient id="SVGID_1_" gradientUnits="userSpaceOnUse" x1="40.6484" y1="103.1108" x2="394.5723" y2="103.1108">
	<stop  offset="2.576122e-02" style="stop-color:#2DFFC4"/>
	<stop  offset="0.5373" style="stop-color:#2DBCFF"/>
	<stop  offset="1" style="stop-color:#003BFF"/>
</linearGradient>
<path class="st0" d="M51.2,34.5c12,0,16.5,8.6,16.5,17.1c0,7.8-4.1,17.1-16.7,17.1H40.6V34.5H51.2z M61.7,51.6
	c0-5.8-2.7-11.6-9.3-11.6h-5.9v23.2h5.3C59.2,63.2,61.7,57,61.7,51.6z M74.9,34.5h22.3V40H80.7v8.3h10.1v5.5H80.7v9.4h17.5v5.5H74.9
	V34.5z M130.2,68.8V50.5c0-1.2,0.1-3.2,0.2-4.1c-0.4,1.3-1.1,3-1.6,4.2l-8.3,18.7l-8.3-18.8c-0.5-1.2-1.2-2.8-1.6-4.1
	c0.1,0.9,0.2,2.9,0.2,4.1v18.2h-5.9V34.5h5.9l8.8,20.1c0.3,0.8,0.7,1.8,0.9,2.5c0.2-0.8,0.6-1.7,0.9-2.5l8.9-20.1h5.7v34.3H130.2z
	 M143.2,51.6c0-8.5,4-17.7,15-17.7c11.1,0,15,9.3,15,17.7s-4,17.7-15,17.7C147.2,69.3,143.2,60.1,143.2,51.6z M167.2,51.6
	c0-5.6-2.3-12.1-9-12.1s-9,6.8-9,12.1c0,5.6,2.3,12.1,9,12.1C164.9,63.7,167.2,56.9,167.2,51.6z M192.5,51.6l-6.2,7.6v9.6h-5.9V34.5
	h5.9v16.5l13.1-16.5h6.9l-9.8,12.2l12.2,22.1h-6.9L192.5,51.6z M214.5,34.5h15.2c8.5,0,11.3,5,11.3,10.4c0,3.9-2.2,8.3-7.1,9.8
	l6.9,14.1h-6.6l-6.6-13.4h-7.2v13.4h-5.9V34.5z M229.7,49.7c3.8,0,5.1-2.4,5.1-4.9c0-2.3-1.1-4.9-5.1-4.9h-9.4v9.7H229.7z
	 M267.1,61.3h-13.6l-2.7,7.5h-6.2l12.8-34.3h5.8L276,68.8h-6.2L267.1,61.3z M261.5,45.7c-0.4-1-0.9-2.4-1.1-3.5
	c-0.3,1-0.8,2.5-1.1,3.5L255.4,56h9.8L261.5,45.7z M290.7,68.8h-5.9V40.1h-9.8v-5.6h25.4v5.6h-9.8V68.8z M306.9,34.5h5.9v34.3h-5.9
	V34.5z M321.3,34.5h22.3V40h-16.5v8.3h10.1v5.5h-10.1v9.4h17.5v5.5h-23.4V34.5z M206.4,137.5h5.9v28.7h16.7v5.6h-22.5V137.5z
	 M254.7,164.3h-13.6l-2.7,7.5h-6.2l12.8-34.3h5.8l12.7,34.3h-6.2L254.7,164.3z M249,148.7c-0.4-1-0.9-2.4-1.1-3.5
	c-0.3,1-0.8,2.5-1.1,3.5L243,159h9.8L249,148.7z M282.8,137.5c8.3,0,11,4.5,11,9.2c0,2.9-1.4,5.6-4.4,7.1c4.1,1.5,5.6,4.9,5.6,7.9
	c0,4.8-3,10.1-11.5,10.1h-14.7v-34.3H282.8z M287.9,147.1c0-2-0.8-4.2-4.9-4.2h-8.3v8.4h7.3C285.9,151.3,287.9,149.6,287.9,147.1z
	 M289,161.8c0-2.5-1.2-5-6.6-5h-7.8v9.6h9.2C287.9,166.3,289,163.9,289,161.8z M300.4,154.6c0-8.5,4-17.7,15-17.7
	c11.1,0,15,9.3,15,17.7s-4,17.7-15,17.7C304.4,172.3,300.4,163.1,300.4,154.6z M324.4,154.6c0-5.6-2.3-12.1-9-12.1s-9,6.8-9,12.1
	c0,5.6,2.3,12.1,9,12.1C322.1,166.7,324.4,159.9,324.4,154.6z M337.6,137.5h15.2c8.5,0,11.3,5,11.3,10.4c0,3.9-2.2,8.3-7.1,9.8
	l6.9,14.1h-6.6l-6.6-13.4h-7.2v13.4h-5.9V137.5z M352.9,152.7c3.8,0,5.1-2.4,5.1-4.9c0-2.3-1.1-4.9-5.1-4.9h-9.4v9.7H352.9z
	 M371.2,137.5h22.3v5.5H377v8.3h10.1v5.5H377v9.4h17.5v5.5h-23.4V137.5z"/>
<linearGradient id="SVGID_2_" gradientUnits="userSpaceOnUse" x1="15.4526" y1="103.1016" x2="416.4067" y2="103.1016">
	<stop  offset="2.576122e-02" style="stop-color:#2DFFC4"/>
	<stop  offset="0.5373" style="stop-color:#2DBCFF"/>
	<stop  offset="1" style="stop-color:#003BFF"/>
</linearGradient>
<path class="st1" d="M416.4,192.4h-235V116h0.1l41.9-25.7H15.5V13.8h354.4v76.5l-42,25.7h88.5V192.4z M187.4,186.4h223V122h-223
	V186.4z M192.9,116h123.5l41.9-25.7H234.8L192.9,116z M21.5,84.3h342.4V19.8H21.5V84.3z"/>
</svg>
